<svg t="1716900466186" class="icon" viewBox="0 0 1024 1024" version="1.1" xmlns="http://www.w3.org/2000/svg" p-id="4618" width="256" height="256"><path d="M855.2 306.1H168.8v-38.8c0-11 9-20 20-20h646.4c11 0 20 9 20 20v38.8z" fill="#003DF0" p-id="4619"></path><path d="M855.2 306.1H168.8v447.5c0 11 9 20 20 20h646.4c11 0 20-9 20-20V306.1z" fill="#EBF1F7" p-id="4620"></path><path d="M723.9 276.6m-11.8 0a11.8 11.8 0 1 0 23.6 0 11.8 11.8 0 1 0-23.6 0Z" fill="#43FFC9" p-id="4621"></path><path d="M763.2 276.6m-11.8 0a11.8 11.8 0 1 0 23.6 0 11.8 11.8 0 1 0-23.6 0Z" fill="#43FFC9" p-id="4622"></path><path d="M794.013687 284.959166a11.8 11.8 0 1 0 16.687429-16.688012 11.8 11.8 0 1 0-16.687429 16.688012Z" fill="#43FFC9" p-id="4623"></path><path d="M205.7 359.5h304v238h-304zM548.3 359.5h274.6v29.4H548.3zM548.3 428.7h274.6v29.4H548.3zM548.3 498h274.6v29.4H548.3zM548.3 567.2H715v29.4H548.3zM205.7 643.9h617.1v29.4H205.7zM205.7 701.4h411.2v29.4H205.7z" fill="#3A6EFF" p-id="4624"></path><path d="M471.4 424.6c-9.2 0-16.7 7.5-16.7 16.7 0 3.1 0.9 6 2.3 8.4L402.5 510c-2.1-1-4.5-1.5-6.9-1.5-2.2 0-4.2 0.4-6.1 1.2l-55.7-68.5c1.7-2.6 2.8-5.8 2.8-9.2 0-9.2-7.5-16.7-16.7-16.7s-16.7 7.5-16.7 16.7c0 3.4 1 6.5 2.8 9.2l-55.7 68.5c-1.9-0.8-4-1.2-6.1-1.2-9.2 0-16.7 7.5-16.7 16.7s7.5 16.7 16.7 16.7 16.7-7.5 16.7-16.7c0-3.4-1-6.5-2.8-9.2l55.7-68.5c1.9 0.8 4 1.2 6.1 1.2 2.2 0 4.2-0.4 6.1-1.2l55.7 68.5c-1.7 2.6-2.8 5.8-2.8 9.2 0 9.2 7.5 16.7 16.7 16.7s16.7-7.5 16.7-16.7c0-3.1-0.9-6-2.3-8.4l54.5-60.3c2.1 1 4.5 1.5 6.9 1.5 9.2 0 16.7-7.5 16.7-16.7s-7.5-16.7-16.7-16.7z" fill="#FFA326" p-id="4625"></path></svg>