<svg t="1717155936056" class="icon" viewBox="0 0 1024 1024" version="1.1" xmlns="http://www.w3.org/2000/svg" p-id="5829" width="128" height="128"><path d="M908.738 125.935L512.037 0 115.336 125.935a35.631 35.631 0 0 0-24.884 34.26V661.41a366.985 366.985 0 0 0 100.545 165.894 1464.188 1464.188 0 0 0 277.186 174.692c10.17 5.338 15.075 7.213 19.33 9.593l19.403 9.738a24.307 24.307 0 0 0 19.33 0l19.33-9.738a1487.053 1487.053 0 0 0 286.851-184.285 365.686 365.686 0 0 0 100.979-165.894V160.195a35.342 35.342 0 0 0-24.812-34.26zM517.086 943.428z m94.487-291.107h-64.266v90.16a37.867 37.867 0 1 1-75.806 0V507.633a159.33 159.33 0 0 1-20.772-7.717 134.301 134.301 0 0 1-75.734-129.83 142.668 142.668 0 0 1 33.106-80.71 134.95 134.95 0 0 1 145.41-39.382 141.73 141.73 0 0 1 68.232 51.86 134.734 134.734 0 0 1 23.513 73.858 10.747 10.747 0 0 1 0 2.236 16.59 16.59 0 0 1 0 2.741 137.042 137.042 0 0 1-97.949 127.666v66.573h64.194a37.94 37.94 0 0 1 38.011 37.867v1.803a37.94 37.94 0 0 1-37.867 38.012z m0 0" fill="#3685F1" p-id="5830"></path><path d="M555.818 412.641l0.938-1.298a99.608 99.608 0 0 0 6.203-10.675 121.246 121.246 0 0 0 4.04-14.858l0.36-7.213c0-2.524 0-5.12-0.36-7.212a104.08 104.08 0 0 0-4.04-14.859 123.05 123.05 0 0 0-4.977-9.016 36.064 36.064 0 0 1-2.885-4.183l-4.4-4.688a78.907 78.907 0 0 0-5.914-5.338l-1.298-0.937a99.608 99.608 0 0 0-10.675-6.203 126.8 126.8 0 0 0-14.426-4.04 101.988 101.988 0 0 0-15.29 0 96.94 96.94 0 0 0-14.426 4.04 109.778 109.778 0 0 0-9.016 4.976 27.913 27.913 0 0 1-4.184 2.885c-1.514 1.443-3.318 2.886-4.688 4.4s-3.678 3.823-5.41 5.915l-0.865 1.298a99.608 99.608 0 0 0-6.203 10.675 126.8 126.8 0 0 0-4.04 14.425 102.06 102.06 0 0 0 0 15.291 96.94 96.94 0 0 0 4.04 14.426c1.587 3.101 3.101 6.059 4.977 9.016a36.064 36.064 0 0 1 2.885 4.183 50.85 50.85 0 0 0 4.4 4.689c1.803 1.803 3.75 3.678 5.914 5.41l1.298 0.937a104.801 104.801 0 0 0 10.675 6.13 126.8 126.8 0 0 0 14.426 4.04 101.988 101.988 0 0 0 15.29 0 96.94 96.94 0 0 0 14.426-4.04 100.896 100.896 0 0 0 9.016-4.976 36.064 36.064 0 0 1 4.4-3.03 41.257 41.257 0 0 0 4.688-4.255 78.907 78.907 0 0 0 5.338-5.915z m0 0" fill="#3685F1" p-id="5831"></path></svg>