<svg t="1716222954993" class="icon" viewBox="0 0 1024 1024" version="1.1" xmlns="http://www.w3.org/2000/svg" p-id="1343" width="200" height="200"><path d="M85.333333 192a128 128 0 0 1 128-128h597.333334a128 128 0 0 1 128 128v640a128 128 0 0 1-128 128H213.333333a128 128 0 0 1-128-128V192z" fill="#FDF6F0" p-id="1344"></path><path d="M85.333333 192a128 128 0 0 1 128-128h597.333334a128 128 0 0 1 128 128v426.666667a128 128 0 0 1-128 128H213.333333a128 128 0 0 1-128-128V192zM554.666667 853.333333a42.666667 42.666667 0 1 1-85.333334 0 42.666667 42.666667 0 0 1 85.333334 0z" fill="#EF4D43" p-id="1345"></path><path d="M170.666667 277.333333a128 128 0 0 1 128-128h426.666666a128 128 0 0 1 0 256H298.666667a128 128 0 0 1-128-128z" fill="#FDF6F0" p-id="1346"></path><path d="M85.333333 192a128 128 0 0 1 128-128h85.333334v896h-85.333334a128 128 0 0 1-128-128V192zM938.666667 192a128 128 0 0 0-128-128h-85.333334v896h85.333334a128 128 0 0 0 128-128V192z" fill="#5D221E" fill-opacity=".25" p-id="1347"></path><path d="M362.666667 469.333333a21.333333 21.333333 0 1 1-42.666667 0 21.333333 21.333333 0 0 1 42.666667 0zM704 469.333333a21.333333 21.333333 0 1 1-42.666667 0 21.333333 21.333333 0 0 1 42.666667 0z" fill="#5D221E" p-id="1348"></path><path d="M341.333333 469.333333a10.666667 10.666667 0 0 1 10.666667 10.666667 160 160 0 0 0 320 0 10.666667 10.666667 0 0 1 21.333333 0 181.333333 181.333333 0 0 1-362.666666 0 10.666667 10.666667 0 0 1 10.666666-10.666667z" fill="#5D221E" p-id="1349"></path><path d="M341.333333 458.666667a10.666667 10.666667 0 0 1 10.666667 10.666666 160 160 0 0 0 320 0 10.666667 10.666667 0 0 1 21.333333 0 181.333333 181.333333 0 0 1-362.666666 0 10.666667 10.666667 0 0 1 10.666666-10.666666z" fill="#FDF6F0" p-id="1350"></path></svg>